<?xml version="1.0" encoding="utf-8"?>
<!-- Generator: Adobe Illustrator 16.0.0, SVG Export Plug-In . SVG Version: 6.00 Build 0)  -->
<!DOCTYPE svg PUBLIC "-//W3C//DTD SVG 1.1//EN" "http://www.w3.org/Graphics/SVG/1.1/DTD/svg11.dtd">
<svg version="1.1" id="Layer_1" xmlns="http://www.w3.org/2000/svg" xmlns:xlink="http://www.w3.org/1999/xlink" x="0px" y="0px"
	 width="156px" height="27px" viewBox="0 0 156 27" enable-background="new 0 0 156 27" xml:space="preserve">
<g>
	<path fill="#2E0700" d="M14.441,4.776c-5.359,0-9.557,3.95-9.557,8.992c0,4.63,3.85,8.397,8.58,8.397
		c3.767,0,5.778-2.346,6.439-3.116c0.04-0.047,0.073-0.086,0.099-0.114l-0.014,0.015l-2.415-2.416
		c-0.088,0.088-0.168,0.182-0.261,0.29c-0.494,0.576-1.65,1.924-3.848,1.924c-2.848,0-5.165-2.233-5.165-4.979
		c0-3.126,2.698-5.575,6.142-5.575c1.931,0,3.911,0.814,5.432,2.232c1.499,1.398,2.358,3.213,2.358,4.981
		c0,2.118-0.908,4.148-2.556,5.716c-1.645,1.563-3.872,2.46-6.111,2.46c-5.407,0-10.15-4.551-10.15-9.738
		C3.415,7.9,8.19,3.417,14.523,3.417c1.912,0,3.79,0.465,5.582,1.381l1.555-3.043C19.382,0.591,16.981,0,14.523,0
		c-3.943,0-7.597,1.397-10.29,3.935C1.503,6.507,0,10.027,0,13.844c0,3.371,1.481,6.738,4.063,9.238
		C6.636,25.572,10.099,27,13.564,27c6.549,0,12.082-5.309,12.082-11.594c0-2.712-1.255-5.439-3.445-7.481
		C20.056,5.924,17.227,4.776,14.441,4.776z"/>
	<path fill="#2E0700" d="M36.447,16.293c-1.379,0-2.26-1.08-2.26-2.46v-0.033c0-1.331,0.897-2.428,2.16-2.428
		c0.914,0,1.445,0.382,2.027,0.981l1.545-1.663c-0.848-0.931-1.877-1.497-3.556-1.497c-2.725,0-4.668,2.095-4.668,4.639v0.034
		c0,2.526,1.96,4.604,4.635,4.604c1.778,0,2.775-0.682,3.639-1.629l-1.479-1.496C37.875,15.927,37.294,16.293,36.447,16.293z"/>
	<path fill="#2E0700" d="M45.029,9.193c-2.775,0-4.835,2.079-4.835,4.639v0.034c0,2.577,2.06,4.604,4.801,4.604
		c2.775,0,4.835-2.078,4.835-4.638v-0.033C49.831,11.222,47.771,9.193,45.029,9.193z M47.339,13.866c0,1.33-0.864,2.427-2.31,2.427
		c-1.396,0-2.343-1.147-2.343-2.46v-0.033c0-1.331,0.864-2.428,2.309-2.428c1.396,0,2.343,1.147,2.343,2.461V13.866z"/>
	<path fill="#2E0700" d="M52.183,6.716c-0.481,0.482-0.714,1.197-0.714,2.161v0.565h-1.046v2.079h1.046v6.75h2.526v-6.75h2.01V9.459
		h-2.043V9.11c0-0.648,0.298-0.964,0.913-0.964c0.449,0,0.765,0.083,1.147,0.216V6.268c-0.465-0.15-0.997-0.25-1.794-0.25
		C53.33,6.018,52.648,6.25,52.183,6.716z"/>
	<path fill="#2E0700" d="M58.938,6.716c-0.482,0.482-0.714,1.197-0.714,2.161v0.565h-1.047v2.079h1.047v6.75h2.525v-6.75h2.01V9.459
		h-2.043V9.11c0-0.648,0.299-0.964,0.914-0.964c0.448,0,0.764,0.083,1.146,0.216V6.268c-0.465-0.15-0.997-0.25-1.794-0.25
		C60.084,6.018,59.403,6.25,58.938,6.716z"/>
	<path fill="#2E0700" d="M67.687,9.193c-2.592,0-4.403,2.095-4.403,4.639v0.034c0,2.727,1.977,4.604,4.652,4.604
		c1.612,0,2.792-0.615,3.639-1.662l-1.445-1.28c-0.714,0.648-1.312,0.915-2.16,0.915c-1.129,0-1.927-0.6-2.176-1.747h6.197
		c0.017-0.249,0.034-0.465,0.034-0.665C72.024,11.505,70.661,9.193,67.687,9.193z M65.76,13.118
		c0.199-1.147,0.864-1.896,1.927-1.896c1.064,0,1.728,0.765,1.877,1.896H65.76z"/>
	<path fill="#2E0700" d="M77.433,9.193c-2.593,0-4.403,2.095-4.403,4.639v0.034c0,2.727,1.977,4.604,4.652,4.604
		c1.612,0,2.792-0.615,3.639-1.662l-1.446-1.28c-0.714,0.648-1.312,0.915-2.16,0.915c-1.129,0-1.927-0.6-2.177-1.747h6.198
		c0.017-0.249,0.033-0.465,0.033-0.665C81.769,11.505,80.407,9.193,77.433,9.193z M75.505,13.118
		c0.199-1.147,0.864-1.896,1.928-1.896c1.063,0,1.728,0.765,1.877,1.896H75.505z"/>
	<path fill="#2E0700" d="M87.675,16.293c-1.379,0-2.259-1.08-2.259-2.46v-0.033c0-1.331,0.896-2.428,2.159-2.428
		c0.915,0,1.446,0.382,2.028,0.981l1.545-1.663c-0.849-0.931-1.878-1.497-3.557-1.497c-2.725,0-4.668,2.095-4.668,4.639v0.034
		c0,2.526,1.96,4.604,4.635,4.604c1.778,0,2.774-0.682,3.639-1.629l-1.478-1.496C89.105,15.927,88.524,16.293,87.675,16.293z"/>
	<path fill="#2E0700" d="M96.258,9.193c-2.775,0-4.834,2.079-4.834,4.639v0.034c0,2.577,2.059,4.604,4.801,4.604
		c2.774,0,4.835-2.078,4.835-4.638v-0.033C101.06,11.222,99,9.193,96.258,9.193z M98.569,13.866c0,1.33-0.865,2.427-2.311,2.427
		c-1.396,0-2.343-1.147-2.343-2.46v-0.033c0-1.331,0.863-2.428,2.31-2.428c1.396,0,2.344,1.147,2.344,2.461V13.866z"/>
	<path fill="#2E0700" d="M112.938,9.193c-1.214,0-2.145,0.482-2.925,1.413c-0.466-0.914-1.329-1.413-2.51-1.413
		c-1.278,0-2.043,0.682-2.625,1.43V9.36h-2.524v8.912h2.524V13.3c0-1.196,0.582-1.812,1.528-1.812c0.947,0,1.479,0.615,1.479,1.812
		v4.972h2.525V13.3c0-1.196,0.582-1.812,1.528-1.812c0.947,0,1.479,0.615,1.479,1.812v4.972h2.527v-5.803
		C115.946,10.324,114.815,9.193,112.938,9.193z"/>
	<path fill="#2E0700" d="M122.951,9.193c-1.329,0-2.161,0.599-2.774,1.446V9.36h-2.526v11.573h2.526v-3.824
		c0.597,0.715,1.429,1.329,2.774,1.329c2.109,0,4.054-1.629,4.054-4.605v-0.033C127.004,10.823,125.028,9.193,122.951,9.193z
		 M124.479,13.833c0,1.497-0.997,2.46-2.177,2.46s-2.16-0.98-2.16-2.46v-0.033c0-1.48,0.98-2.461,2.16-2.461
		s2.177,0.981,2.177,2.461V13.833z"/>
	<path fill="#2E0700" d="M132.131,9.26c-1.512,0-2.475,0.267-3.455,0.715l0.631,1.928c0.815-0.315,1.479-0.481,2.459-0.481
		c1.264,0,1.91,0.565,1.91,1.629v0.149c-0.646-0.216-1.262-0.366-2.175-0.366c-2.11,0-3.59,0.915-3.59,2.843v0.033
		c0,1.779,1.38,2.727,3.057,2.727c1.247,0,2.077-0.448,2.692-1.13v0.964h2.442v-5.17c0-1.198-0.299-2.178-0.964-2.843
		C134.492,9.609,133.527,9.26,132.131,9.26z M133.71,15.129c0,0.931-0.78,1.563-1.978,1.563c-0.813,0-1.379-0.399-1.379-1.081
		v-0.033c0-0.798,0.665-1.23,1.745-1.23c0.614,0,1.162,0.133,1.611,0.333V15.129z"/>
	<path fill="#2E0700" d="M142.99,9.193c-1.264,0-2.026,0.682-2.609,1.43V9.36h-2.525v8.912h2.525V13.3
		c0-1.196,0.599-1.812,1.579-1.812s1.528,0.615,1.528,1.812v4.972h2.525v-5.769C146.013,10.44,144.917,9.193,142.99,9.193z"/>
	<path fill="#2E0700" d="M153.375,9.36l-1.943,6.068l-2.028-6.068h-2.674l3.489,8.945c-0.217,0.449-0.433,0.582-0.882,0.582
		c-0.332,0-0.747-0.149-1.079-0.349l-0.847,1.829c0.647,0.381,1.312,0.614,2.242,0.614c1.495,0,2.259-0.682,2.925-2.493L156,9.36
		H153.375z"/>
</g>
</svg>
