<?xml version="1.0" encoding="utf-8"?>
<!-- Generator: Adobe Illustrator 25.4.1, SVG Export Plug-In . SVG Version: 6.00 Build 0)  -->
<svg version="1.1" id="Laag_1" xmlns="http://www.w3.org/2000/svg" xmlns:xlink="http://www.w3.org/1999/xlink" x="0px" y="0px"
	 viewBox="0 0 300 200" style="enable-background:new 0 0 300 200;" xml:space="preserve">
<path d="M203.2,60.2c-12.4-0.1-24.8-0.1-37.2-0.2c-20.8-0.1-41.6-0.2-62.5-0.2c-1.1,0-1.5-0.3-1.7-1.3c-1.4-5.5-2.9-11-4.4-16.6
	c-1.5-5.6-5.1-8.4-10.9-8.4c-4.7,0-9.5,0.1-14.2,0c-2.6-0.1-4.5,0.8-5.5,3.3c0,0.7,0,1.3,0,2c1,2.5,2.8,3.4,5.4,3.4
	c4.7-0.1,9.5,0,14.2,0c1.9,0,2.2,0.3,2.7,2.1c6.2,23.2,12.5,46.3,18.7,69.5c0.1,0.5,0.2,1,0.3,1.5c-0.4,0.1-0.8,0.1-1.1,0.1
	c-7.3,0.8-12.6,7.8-11.5,15.1c1.1,6.7,6.4,11.3,13.3,11.4c1.9,0,3.8,0,5.9,0c-2.6,7.7-1.2,14.2,5.5,18.8c5.2,3.6,11,3.6,16.3,0
	c6.8-4.6,8.2-11.2,5.5-18.7c8.9,0,17.7,0,26.5,0c-2.2,8.5-0.7,14.2,4.9,18.4c4.9,3.6,11.8,3.9,16.8,0.4c6.9-4.8,8.3-11.4,5.5-19.1
	c1.8-1.1,2.5-2.1,2.7-3.5c0.3-2.9-1.7-4.8-5-4.8c-27.7,0-55.5,0-83.2,0c-0.7,0-1.3,0-2-0.1c-2.5-0.2-4.2-2.2-4.2-4.7
	c0-2.5,1.7-4.5,4.2-4.7c0.7-0.1,1.3-0.1,2-0.1c25.2,0,50.3,0,75.5,0c1.8,0,3.6,0,5.4,0c5.1-0.1,9.2-3.2,10.3-8.1
	c3.5-14.9,7-29.8,10.3-44.7C213.3,65,209.3,60.2,203.2,60.2z M182.5,141.8c3.5,0,6.3,2.9,6.3,6.3c0,3.5-2.8,6.4-6.4,6.4
	c-3.6,0-6.4-2.8-6.4-6.4C176.1,144.6,179,141.7,182.5,141.8z M128.6,141.8c3.4,0,6.3,2.9,6.4,6.3c0.1,3.5-2.8,6.4-6.3,6.4
	c-3.6,0-6.4-2.8-6.4-6.3C122.2,144.6,125.1,141.7,128.6,141.8z M109.6,86.8c-1.6-6.1-3.3-12.2-5-18.5c4.6,0,9,0,13.3,0
	c1.7,0,3.3,0,5,0.1c0.3,0,0.9,0.4,1,0.7c0.8,6,1.6,12.1,2.4,18.1c0,0.1-0.1,0.2-0.1,0.4c-0.3,0-0.7,0.1-1,0.1c-4.7,0-9.4,0-14.2,0
	C110.3,87.7,109.8,87.6,109.6,86.8z M129.8,115.2c-1.4,0-2.8,0-4.2,0c-2.1,0-4.2,0-6.2,0c-1.3,0-2.3-0.5-2.7-1.8
	c-1.5-5.5-3-11-4.5-16.5c0-0.2,0-0.4,0-0.7c2.9,0,5.7,0,8.5,0c1.9,0,3.8,0,5.7,0c0.4,0,1,0.4,1.1,0.7c0.8,5.9,1.6,11.8,2.4,17.7
	C129.9,114.7,129.9,114.9,129.8,115.2z M132.4,68.5c6.3,0,12.5,0,18.7,0c0,6.4,0,12.7,0,19.1c-5.3,0-10.6,0-16.1,0
	C134.1,81.3,133.3,74.9,132.4,68.5z M151.1,115.1c-4.2,0-8.3,0-12.5,0c-0.8-6.3-1.7-12.5-2.5-18.9c5.1,0,10,0,15,0
	C151.1,102.6,151.1,108.8,151.1,115.1z M174.1,101.7c-0.5,4.2-1.1,8.3-1.7,12.5c-0.1,0.4-0.4,1-0.7,1c-4,0.1-7.9,0-11.9,0
	c0-6.4,0-12.6,0-18.9c4.9,0,9.9,0,15,0C174.6,98.1,174.4,99.9,174.1,101.7z M177.8,74.1c-0.5,4.1-1.1,8.2-1.6,12.4
	c-0.1,0.7-0.2,1.2-1.1,1.2c-4.9,0-9.8,0-14.7,0c-0.1,0-0.3-0.1-0.5-0.1c0-6.3,0-12.5,0-18.9c6.2,0,12.3,0,18.6,0
	C178.2,70.5,178,72.3,177.8,74.1z M195.2,105.6c-0.6,2.5-1.2,5.1-1.7,7.6c-0.3,1.2-1,2-2.2,2c-3.3,0-6.7,0-10.3,0
	c0.2-1.6,0.4-3,0.6-4.5c0.6-4.5,1.2-9,1.8-13.5c0.1-0.4,0.4-1,0.7-1c4.4-0.1,8.8,0,13.3,0C196.6,99.5,195.9,102.5,195.2,105.6z
	 M199.3,87.6c-4.9,0-9.7,0-14.6,0c0-0.4,0-0.8,0-1.2c0.7-5.6,1.5-11.1,2.2-16.7c0.1-0.4,0.5-1,0.8-1c5.2-0.1,10.5,0,15.9,0
	C202.2,75.1,200.8,81.3,199.3,87.6z"/>
</svg>
